<?xml version="1.0" encoding="utf-8"?>
<!-- Generator: Adobe Illustrator 21.0.0, SVG Export Plug-In . SVG Version: 6.00 Build 0)  -->
<svg version="1.1" id="Layer_1" xmlns="http://www.w3.org/2000/svg" xmlns:xlink="http://www.w3.org/1999/xlink" x="0px" y="0px"
	 viewBox="0 0 60 60" style="enable-background:new 0 0 60 60;" xml:space="preserve">
<g>
	<path d="M7.8,22.8c0-0.4,0.3-0.7,0.7-0.7s0.7,0.3,0.7,0.7v25.4c0,0.8,0.3,1.5,0.9,2.1c0.5,0.5,1.3,0.9,2.1,0.9h36.3
		c0.8,0,1.5-0.3,2.1-0.9c0.5-0.5,0.9-1.3,0.9-2.1V22.8c0-0.4,0.3-0.7,0.7-0.7s0.7,0.3,0.7,0.7v25.4c0,1.2-0.5,2.3-1.3,3.1
		s-1.9,1.3-3.1,1.3H12.2c-1.2,0-2.3-0.5-3.1-1.3c-0.8-0.8-1.3-1.9-1.3-3.1V22.8z"/>
	<path d="M41.6,15.7c0,0.4-0.3,0.7-0.7,0.7s-0.7-0.3-0.7-0.7V8.1c0-0.4,0.3-0.7,0.7-0.7s0.7,0.3,0.7,0.7V15.7z"/>
	<path d="M20.5,15.7c0,0.4-0.3,0.7-0.7,0.7s-0.7-0.3-0.7-0.7V8.1c0-0.4,0.3-0.7,0.7-0.7s0.7,0.3,0.7,0.7V15.7z"/>
	<path d="M19.8,10.9c0.4,0,0.7,0.3,0.7,0.7s-0.3,0.7-0.7,0.7h-7.6c-0.8,0-1.5,0.3-2.1,0.9l0,0c-0.5,0.5-0.8,1.2-0.8,2v3.2h42.2v-3.2
		c0-0.8-0.3-1.5-0.9-2.1l0,0c-0.5-0.5-1.3-0.8-2-0.8h-4.8c-0.4,0-0.7-0.3-0.7-0.7s0.3-0.7,0.7-0.7h4.8c1.2,0,2.2,0.5,3,1.2l0,0
		c0.8,0.8,1.3,1.9,1.3,3.1v3.9c0,0.4-0.3,0.7-0.7,0.7H8.5c-0.4,0-0.7-0.3-0.7-0.7v-3.9c0-1.2,0.5-2.2,1.2-3l0,0
		c0.8-0.8,1.9-1.3,3.1-1.3C12.1,10.9,19.8,10.9,19.8,10.9z M40.9,10.9H22.6c-0.4,0-0.7,0.3-0.7,0.7s0.3,0.7,0.7,0.7h18.3
		c0.4,0,0.7-0.3,0.7-0.7C41.6,11.2,41.3,10.9,40.9,10.9L40.9,10.9z"/>
	<path d="M21.5,25.3h-6.8V33h6.8V25.3z M14,23.9h8.2c0.4,0,0.7,0.3,0.7,0.7v9.1c0,0.4-0.3,0.7-0.7,0.7H14c-0.4,0-0.7-0.3-0.7-0.7
		v-9.1C13.3,24.3,13.6,23.9,14,23.9L14,23.9z"/>
	<path d="M46,25.3h-6.8V33H46V25.3z M38.5,23.9h8.2c0.4,0,0.7,0.3,0.7,0.7v9.1c0,0.4-0.3,0.7-0.7,0.7h-8.2c-0.4,0-0.7-0.3-0.7-0.7
		v-9.1C37.8,24.3,38.1,23.9,38.5,23.9L38.5,23.9z"/>
	<path d="M33.7,25.3H27V33h6.8L33.7,25.3L33.7,25.3z M26.3,23.9h8.2c0.4,0,0.7,0.3,0.7,0.7v9.1c0,0.4-0.3,0.7-0.7,0.7h-8.2
		c-0.4,0-0.7-0.3-0.7-0.7v-9.1C25.5,24.3,25.9,23.9,26.3,23.9L26.3,23.9z"/>
	<path d="M21.5,38.1h-6.8v7.7h6.8V38.1z M14,36.7h8.2c0.4,0,0.7,0.3,0.7,0.7v9.1c0,0.4-0.3,0.7-0.7,0.7H14c-0.4,0-0.7-0.3-0.7-0.7
		v-9.1C13.3,37,13.6,36.7,14,36.7L14,36.7z"/>
	<path d="M46,38.1h-6.8v7.7H46V38.1z M38.5,36.7h8.2c0.4,0,0.7,0.3,0.7,0.7v9.1c0,0.4-0.3,0.7-0.7,0.7h-8.2c-0.4,0-0.7-0.3-0.7-0.7
		v-9.1C37.8,37,38.1,36.7,38.5,36.7L38.5,36.7z"/>
	<path d="M33.7,38.1H27v7.7h6.8L33.7,38.1L33.7,38.1z M26.3,36.7h8.2c0.4,0,0.7,0.3,0.7,0.7v9.1c0,0.4-0.3,0.7-0.7,0.7h-8.2
		c-0.4,0-0.7-0.3-0.7-0.7v-9.1C25.5,37,25.9,36.7,26.3,36.7L26.3,36.7z"/>
</g>
</svg>
