<?xml version="1.0" encoding="utf-8"?>
<!-- Generator: Adobe Illustrator 21.0.0, SVG Export Plug-In . SVG Version: 6.00 Build 0)  -->
<svg version="1.1" id="Layer_1" xmlns="http://www.w3.org/2000/svg" xmlns:xlink="http://www.w3.org/1999/xlink" x="0px" y="0px"
	 viewBox="0 0 60 60" style="enable-background:new 0 0 60 60;" xml:space="preserve">
<style type="text/css">
	.st0{fill:#000001;}
	.st1{enable-background:new    ;}
	.st2{fill:none;stroke:#000000;stroke-width:0.8486;stroke-linecap:round;stroke-linejoin:round;stroke-miterlimit:10;}
</style>
<g>
	<path class="st0" d="M8.1,23.1c0-0.4,0.3-0.7,0.7-0.7s0.7,0.3,0.7,0.7v24.8c0,0.8,0.3,1.5,0.8,2s1.2,0.8,2,0.8h35.4
		c0.8,0,1.5-0.3,2-0.8s0.8-1.2,0.8-2V23.1c0-0.4,0.3-0.7,0.7-0.7s0.7,0.3,0.7,0.7v24.8c0,1.2-0.5,2.2-1.2,3c-0.8,0.8-1.8,1.2-3,1.2
		H12.3c-1.2,0-2.2-0.5-3-1.2c-0.8-0.8-1.2-1.8-1.2-3V23.1z"/>
	<path class="st0" d="M42.9,16.2c0,0.4-0.3,0.7-0.7,0.7s-0.7-0.3-0.7-0.7v-8c0-0.4,0.3-0.7,0.7-0.7s0.7,0.3,0.7,0.7V16.2z"/>
	<path class="st0" d="M20.6,16.2c0,0.4-0.3,0.7-0.7,0.7s-0.7-0.3-0.7-0.7v-8c0-0.4,0.3-0.7,0.7-0.7s0.7,0.3,0.7,0.7V16.2z"/>
	<path class="st0" d="M19.7,11.5c0.4,0,0.7,0.3,0.7,0.7s-0.3,0.7-0.7,0.7h-7.4c-0.8,0-1.5,0.3-2,0.8l0,0c-0.5,0.5-0.8,1.2-0.8,2v3.1
		h41.1v-3.1c0-0.8-0.3-1.5-0.8-2l0,0c-0.5-0.5-1.2-0.8-2-0.8H43c-0.4,0-0.7-0.3-0.7-0.7s0.3-0.7,0.7-0.7h4.7c1.1,0,2.2,0.5,2.9,1.2
		l0,0c0.8,0.8,1.2,1.8,1.2,3v3.8c0,0.4-0.3,0.7-0.7,0.7H8.8c-0.4,0-0.7-0.3-0.7-0.7v-3.8c0-1.1,0.5-2.2,1.2-2.9l0,0
		c0.8-0.8,1.8-1.2,3-1.2L19.7,11.5L19.7,11.5z M40.3,11.5H22.5c-0.4,0-0.7,0.3-0.7,0.7s0.3,0.7,0.7,0.7h17.8c0.4,0,0.7-0.3,0.7-0.7
		S40.7,11.5,40.3,11.5L40.3,11.5z"/>
	<g class="st1">
		<path class="st2" d="M16.2,24.8c0-0.7,0.4-1,1.1-1h5.9c1.4,0,1.6,0.6,1.6,1.3v0.2c0,0.6-0.5,1.3-0.8,1.9l-3.8,7
			C19.9,34.8,19.4,35,19,35c-0.8,0-1.5-0.7-1.4-0.9l4.6-8.2h-4.9c-0.7,0-1.1-0.3-1.1-1V24.8z"/>
	</g>
	<g class="st1">
		<path class="st2" d="M33.9,46.3v-6.9c-0.3,0.2-0.6,0.3-1,0.3c-0.9,0-1.5-0.6-1.5-1.4s0.6-1.2,0.7-1.2c0.3,0.2,0.6,0.4,1,0.4
			c0.7,0,1.3-0.5,1.5-1.3h0.7c0.7,0,1.1,0.4,1.1,1.2v9c0,0.8-0.4,1.2-1.1,1.2h-0.3C34.2,47.5,33.9,47.1,33.9,46.3z"/>
		<path class="st2" d="M40.6,45.3h5c0.9,0,1.2,0.3,1.2,0.9v0.1c0,0.6-0.3,1-1.2,1h-5.8c-1.1,0-1.5-0.3-1.5-1.3v-0.5
			c0-2.1,1.8-3.2,3.4-3.9c1.4-0.6,2.5-1.1,2.5-2.1c0-0.9-0.7-1.5-1.9-1.5c-1.4,0-2.1,0.9-2.4,1.9c0,0.1-1.6,0.1-1.6-1.2
			c0-1.4,1.5-2.8,4.2-2.8c2.7,0,4.2,1.3,4.2,3.4c0,2-1.5,2.8-3.1,3.5C42,43.6,40.9,44.2,40.6,45.3z"/>
	</g>
	<g>
		<path d="M23.6,44.8c-0.1,0-0.2,0-0.2-0.1c-0.2-0.1-0.3-0.4-0.2-0.7l9.4-18.9c0.1-0.2,0.4-0.3,0.7-0.2c0.2,0.1,0.3,0.4,0.2,0.7
			L24,44.5C24,44.7,23.8,44.8,23.6,44.8z"/>
	</g>
</g>
</svg>
