<?xml version="1.0" encoding="utf-8"?>
<!-- Generator: Adobe Illustrator 21.0.0, SVG Export Plug-In . SVG Version: 6.00 Build 0)  -->
<svg version="1.1" id="Capa_1" xmlns="http://www.w3.org/2000/svg" xmlns:xlink="http://www.w3.org/1999/xlink" x="0px" y="0px"
	 viewBox="0 0 50 50" style="enable-background:new 0 0 50 50;" xml:space="preserve">
<g>
	<path d="M25,43c-9.9,0-18-8.1-18-18S15.1,7,25,7s18,8.1,18,18S34.9,43,25,43z M25,8.7C16,8.7,8.7,16,8.7,25S16,41.3,25,41.3
		S41.3,34,41.3,25S34,8.7,25,8.7z"/>
</g>
<g>
	<g>
		<path d="M22.3,27.7c0.1-5.4,5.7-4.6,5.7-7.4c0-1.5-1.1-2.4-3-2.4c-2.7,0-4,1.9-4.2,3.7c0,0.1-3.1,0.2-3.1-2.3
			c0-2.3,2.5-5.2,7.4-5.2c4.6,0,7.3,2.3,7.3,5.8c0,5.4-5.9,4.6-6.2,8.4c-0.2,0.6-0.8,0.9-1.9,0.9C23.1,29.3,22.3,28.8,22.3,27.7z
			 M21.8,33.7v-0.5c0-1.4,0.7-2.1,2.1-2.1h0.6c1.5,0,2.2,0.7,2.2,2.1v0.5c0,1.4-0.7,2.1-2.2,2.1H24C22.6,35.8,21.8,35.1,21.8,33.7z"
			/>
	</g>
</g>
</svg>
