<?xml version="1.0" encoding="utf-8"?>
<!-- Generator: Adobe Illustrator 21.0.0, SVG Export Plug-In . SVG Version: 6.00 Build 0)  -->
<svg version="1.1" id="Capa_1" xmlns="http://www.w3.org/2000/svg" xmlns:xlink="http://www.w3.org/1999/xlink" x="0px" y="0px"
	 viewBox="0 0 128 128" style="enable-background:new 0 0 128 128;" xml:space="preserve">
<style type="text/css">
	.st0{fill:#289247;}
</style>
<title>icon_check_thanyou</title>
<g>
	<path class="st0" d="M64,124C30.9,124,4,97.1,4,64S30.9,4,64,4s60,26.9,60,60S97.1,124,64,124z M64,7C32.6,7,7,32.6,7,64
		s25.6,57,57,57s57-25.6,57-57S95.4,7,64,7z"/>
</g>
<path class="st0" d="M33.6,61.5c-1.6,5.7,5.3,13.2,8.1,17.6c2.4,3.8,4.4,8,7.1,11.6c3.8,5.2,11,5.7,14.7,0
	C72.9,76.4,82.7,62.2,92.3,48c2.6-3.9,5.2-8.1,2.3-12.8c-4.4-7.2-12.3-3.3-15.9,2c-5.1,7.4-10,14.9-15,22.3s-10.1,15-14.9,22.6h14.7
	c-3.1-4-6.8-7.6-10.1-11.4c-3.6-4.1-8.8-12.9-14.9-13C36.2,57.7,34.2,59.3,33.6,61.5L33.6,61.5z"/>
</svg>
