<?xml version="1.0" encoding="utf-8"?>
<!-- Generator: Adobe Illustrator 21.0.0, SVG Export Plug-In . SVG Version: 6.00 Build 0)  -->
<svg version="1.1" id="Layer_1" xmlns="http://www.w3.org/2000/svg" xmlns:xlink="http://www.w3.org/1999/xlink" x="0px" y="0px"
	 viewBox="0 0 60 60" style="enable-background:new 0 0 60 60;" xml:space="preserve">
<g>
	<g>
		<g>
			<path d="M42,52.6H17.9c-2.8,0-5-2.2-5-4.9V15.1c0-2.7,2.2-4.9,5-4.9h7.5c0.3,0,0.5,0.2,0.5,0.5s-0.2,0.5-0.5,0.5h-7.5
				c-2.2,0-4,1.7-4,3.9v32.6c0,2.2,1.8,3.9,4,3.9H42c2.2,0,4-1.7,4-3.9V15.1c0-2.2-1.8-3.9-4-3.9h-7.7c-0.3,0-0.5-0.2-0.5-0.5
				s0.2-0.5,0.5-0.5H42c2.8,0,5,2.2,5,4.9v32.6C47,50.4,44.8,52.6,42,52.6z M42,48.1H18c-0.3,0-0.5-0.2-0.5-0.5V15.1
				c0-0.3,0.2-0.5,0.5-0.5h3.6c0.3,0,0.5,0.2,0.5,0.5s-0.2,0.5-0.5,0.5h-3.1v31.5h23V15.5h-3.1c-0.3,0-0.5-0.2-0.5-0.5
				s0.2-0.5,0.5-0.5H42c0.3,0,0.5,0.2,0.5,0.5v32.6C42.5,47.9,42.3,48.1,42,48.1z"/>
		</g>
	</g>
	<g>
		<path d="M30,14c0.4,0,0.7-0.3,0.7-0.7v-1.5c0-0.4-0.3-0.7-0.7-0.7c-0.4,0-0.7,0.3-0.7,0.7v1.5C29.3,13.6,29.6,14,30,14L30,14z"/>
	</g>
	<path d="M29.3,25.7h8.6c0.4,0,0.7-0.3,0.7-0.7c0-0.4-0.3-0.7-0.7-0.7h-8.6c-0.4,0-0.7,0.3-0.7,0.7C28.6,25.4,28.9,25.7,29.3,25.7
		L29.3,25.7z"/>
	<path d="M21.6,24.6c-0.3,0.3-0.3,0.7,0,0.9l1.4,1.4c0.1,0.1,0.3,0.2,0.5,0.2s0.3-0.1,0.5-0.2l2.9-2.8c0.3-0.3,0.3-0.7,0-0.9
		c-0.3-0.3-0.7-0.3-1,0l-2.4,2.4l-1-0.9C22.3,24.3,21.9,24.3,21.6,24.6L21.6,24.6z"/>
	<path d="M29.3,32.8h8.6c0.4,0,0.7-0.3,0.7-0.7c0-0.4-0.3-0.7-0.7-0.7h-8.6c-0.4,0-0.7,0.3-0.7,0.7S28.9,32.8,29.3,32.8L29.3,32.8z"
		/>
	<path d="M25.9,30.3l-2.4,2.4l-1-0.9c-0.3-0.3-0.7-0.3-1,0c-0.3,0.3-0.3,0.7,0,0.9l1.4,1.4c0.1,0.1,0.3,0.2,0.5,0.2s0.3-0.1,0.5-0.2
		l2.9-2.8c0.3-0.3,0.3-0.7,0-0.9C26.6,30,26.2,30,25.9,30.3L25.9,30.3z"/>
	<path d="M29.3,39.9h8.6c0.4,0,0.7-0.3,0.7-0.7s-0.3-0.7-0.7-0.7h-8.6c-0.4,0-0.7,0.3-0.7,0.7C28.6,39.6,28.9,39.9,29.3,39.9
		L29.3,39.9z"/>
	<path d="M25.9,37.4l-2.4,2.4l-1-0.9c-0.3-0.3-0.7-0.3-1,0s-0.3,0.7,0,0.9l1.4,1.4c0.1,0.1,0.3,0.2,0.5,0.2s0.3-0.1,0.5-0.2l2.9-2.8
		c0.3-0.3,0.3-0.7,0-0.9C26.6,37.1,26.2,37.1,25.9,37.4L25.9,37.4z"/>
	<g>
		<path d="M36,16.3H24c-0.8,0-1.3-1-1.3-1.9c0-1,0.6-1.8,1.3-1.8h2.9c0.1-0.1,0.3-0.6,0.3-1v-1c0-1.9,1-3,2.8-3c1.9,0,2.8,1,2.8,3v1
			c0,0.4,0.2,0.9,0.3,1H36c0.7,0,1.3,0.8,1.3,1.8C37.3,15.3,36.8,16.3,36,16.3z M24,13.6c-0.1,0-0.3,0.3-0.3,0.8
			c0,0.5,0.2,0.9,0.3,0.9l12,0c0.1,0,0.3-0.4,0.3-0.9c0-0.5-0.2-0.8-0.3-0.8l-3,0c-0.8,0-1.2-1.3-1.2-2v-1c0-1.7-0.7-2-1.8-2
			c-1.2,0-1.8,0.6-1.8,2v1c0,0.7-0.4,2-1.2,2H24z"/>
	</g>
</g>
</svg>
