<?xml version="1.0" encoding="utf-8"?>
<!-- Generator: Adobe Illustrator 21.0.0, SVG Export Plug-In . SVG Version: 6.00 Build 0)  -->
<svg version="1.1" id="Layer_1" xmlns="http://www.w3.org/2000/svg" xmlns:xlink="http://www.w3.org/1999/xlink" x="0px" y="0px"
	 viewBox="0 0 60 60" style="enable-background:new 0 0 60 60;" xml:space="preserve">
<g>
	<g>
		<path d="M32.6,14.8c-0.9-0.1-1.8-0.2-2.7-0.2c-0.9,0-1.8,0.1-2.7,0.2L26.1,15c-2.7,0.6-5.3,1.8-7.4,3.4L17.3,17
			c-0.5-0.5-1.3-0.5-1.7,0l-1.7,1.7c-0.2,0.2-0.4,0.5-0.4,0.9c0,0.3,0.1,0.6,0.4,0.9l1.4,1.4c-2.5,3.2-3.9,7.1-3.9,11.5
			C11.3,43.6,19.7,52,30,52s18.7-8.4,18.7-18.7c0-9-6.4-16.5-14.8-18.3l0,0L32.6,14.8z M14.7,19.7L14.7,19.7
			C14.7,19.6,14.7,19.6,14.7,19.7l1.7-1.7c0,0,0,0,0.1,0l1.3,1.3c-0.6,0.5-1.2,1.1-1.8,1.7L14.7,19.7z M30,50.8
			c-9.6,0-17.5-7.8-17.5-17.5S20.3,15.8,30,15.8s17.5,7.8,17.5,17.5S39.6,50.8,30,50.8L30,50.8z"/>
	</g>
	<path d="M30,18.8c-8,0-14.6,6.5-14.6,14.6c0,8,6.5,14.6,14.6,14.6c8,0,14.6-6.5,14.6-14.6S38,18.8,30,18.8L30,18.8z M30,46.7
		c-7.4,0-13.4-6-13.4-13.4C16.6,26,22.6,20,30,20s13.4,6,13.4,13.4C43.4,40.7,37.4,46.7,30,46.7L30,46.7z"/>
	<path d="M30.6,25.6c-0.1-0.3-0.3-0.5-0.6-0.5c-0.3,0-0.5,0.2-0.6,0.5c0,0-1.6,7.5-1.6,7.8c0,1.2,1,2.2,2.2,2.2s2.2-1,2.2-2.2
		C32.2,33.1,30.6,25.6,30.6,25.6L30.6,25.6z M30,28.7l0.5,2.6c-0.2,0-0.3-0.1-0.5-0.1s-0.4,0-0.5,0.1L30,28.7z M30,34.3
		c-0.5,0-1-0.4-1-1c0-0.5,0.4-1,1-1c0.5,0,1,0.4,1,1C31,33.9,30.5,34.3,30,34.3L30,34.3z"/>
	<path d="M30,42.6c-0.3,0-0.6,0.3-0.6,0.6v2.3c0,0.3,0.3,0.6,0.6,0.6c0.3,0,0.6-0.3,0.6-0.6v-2.3C30.6,42.9,30.3,42.6,30,42.6
		L30,42.6z"/>
	<path d="M30,24.1c0.3,0,0.6-0.3,0.6-0.6v-2.3c0-0.3-0.3-0.6-0.6-0.6c-0.3,0-0.6,0.3-0.6,0.6v2.3C29.4,23.8,29.7,24.1,30,24.1
		L30,24.1z"/>
	<path d="M22.6,39.9L21,41.5c-0.2,0.2-0.2,0.6,0,0.8c0.1,0.1,0.3,0.2,0.4,0.2c0.2,0,0.3-0.1,0.4-0.2l1.6-1.6c0.2-0.2,0.2-0.6,0-0.8
		C23.2,39.7,22.8,39.7,22.6,39.9L22.6,39.9z"/>
	<path d="M37,26.9c0.2,0,0.3-0.1,0.4-0.2l1.6-1.6c0.2-0.2,0.2-0.6,0-0.8c-0.2-0.2-0.6-0.2-0.8,0l-1.6,1.6c-0.1,0.1-0.2,0.3-0.2,0.4
		C36.4,26.7,36.6,26.9,37,26.9L37,26.9z"/>
	<path d="M20.1,32.7h-2.3c-0.3,0-0.6,0.3-0.6,0.6s0.3,0.6,0.6,0.6h2.3c0.3,0,0.6-0.3,0.6-0.6S20.4,32.7,20.1,32.7L20.1,32.7z"/>
	<path d="M42.2,32.7h-2.3c-0.3,0-0.6,0.3-0.6,0.6s0.3,0.6,0.6,0.6h2.3c0.3,0,0.6-0.3,0.6-0.6S42.5,32.7,42.2,32.7L42.2,32.7z"/>
	<path d="M22.6,26.8c0.1,0.1,0.3,0.2,0.4,0.2l0,0c0.3,0,0.6-0.3,0.6-0.6c0-0.2-0.1-0.3-0.2-0.4l-1.6-1.6c-0.2-0.2-0.6-0.2-0.8,0
		c-0.2,0.2-0.2,0.6,0,0.8L22.6,26.8z"/>
	<path d="M37.4,39.9c-0.2-0.2-0.6-0.2-0.8,0s-0.2,0.6,0,0.8l1.6,1.6c0.1,0.1,0.3,0.2,0.4,0.2c0.2,0,0.3-0.1,0.4-0.2
		c0.2-0.2,0.2-0.6,0-0.8L37.4,39.9z"/>
	<path d="M32,7h-4.1c-1.5,0-2.8,1.3-2.8,2.8v1.3c0,0.3,0.3,0.6,0.6,0.6h0.4v2.6l1.2-0.3h5.3l1.2,0.2v-2.6h0.4c0.3,0,0.6-0.3,0.6-0.6
		V9.8C34.8,8.3,33.6,7,32,7z M33.6,10.6h-7.3V9.8c0-0.9,0.7-1.6,1.6-1.6H32c0.9,0,1.6,0.7,1.6,1.6V10.6z"/>
</g>
</svg>
