<?xml version="1.0" encoding="utf-8"?>
<!-- Generator: Adobe Illustrator 20.1.0, SVG Export Plug-In . SVG Version: 6.00 Build 0)  -->
<svg version="1.1" id="Capa_1" xmlns="http://www.w3.org/2000/svg" xmlns:xlink="http://www.w3.org/1999/xlink" x="0px" y="0px"
	 viewBox="0 0 85 85" style="enable-background:new 0 0 85 85;" xml:space="preserve">
<style type="text/css">
	.st0{fill:#73962C;}
</style>
<path class="st0" d="M49.5,31.4c1.5,0,3.1,0.4,3.3,0.5l0,0c0.7,0.2,1.5-0.3,1.6-1l1.1-6.3c0.1-0.6-0.3-1.3-0.9-1.5
	c-0.5-0.1-3-0.8-8.6-0.8c-3.6,0-6.1,1.1-8.1,3.6c-1.8,2.2-1.8,5.5-1.8,7.2V36l-3.3,0c-0.6,0-1.3,0.4-1.3,1.3v6.2
	c0,0.7,0.6,1.3,1.3,1.3h3.3v20.2c0,0.7,0.6,1.3,1.3,1.3h8.6c0.7,0,1.3-0.6,1.3-1.3V44.7h5.5c0.7,0,1.2-0.5,1.3-1.2l0.5-6.2
	c0-0.4-0.1-0.7-0.3-1c-0.2-0.3-0.6-0.4-1-0.4h-6v-3.5C47.4,31.5,48.8,31.4,49.5,31.4z M44.8,32.4v4.8c0,0.7,0.6,1.3,1.3,1.3H52
	l-0.3,3.6h-5.6c-0.7,0-1.3,0.6-1.3,1.3v20.2h-6V43.4c0-0.7-0.6-1.3-1.3-1.3h-3.3v-3.6h3.3c0.7,0,1.3-0.6,1.3-1.3v-4.2
	c0-2.1,0.1-4.3,1.2-5.6c1-1.2,2.6-2.6,6.1-2.6c3.4,0,5.6,0.3,6.7,0.5l-0.7,3.8c-2.5-0.4-4.4-0.3-5.7,0.4
	C45.4,30.2,44.8,31.2,44.8,32.4z"/>
<path class="st0" d="M42.6,7.7C23.1,7.7,7.2,23.6,7.2,43.1s15.9,35.4,35.4,35.4S78,62.6,78,43.1S62.1,7.7,42.6,7.7z M42.6,75.3
	c-17.7,0-32.2-14.4-32.2-32.2c0-17.7,14.4-32.2,32.2-32.2c17.7,0,32.2,14.4,32.2,32.2C74.8,60.9,60.4,75.3,42.6,75.3z"/>
</svg>
