<?xml version="1.0" encoding="utf-8"?>
<!-- Generator: Adobe Illustrator 20.1.0, SVG Export Plug-In . SVG Version: 6.00 Build 0)  -->
<svg version="1.1" id="Capa_1" xmlns="http://www.w3.org/2000/svg" xmlns:xlink="http://www.w3.org/1999/xlink" x="0px" y="0px"
	 viewBox="0 0 85 85" style="enable-background:new 0 0 85 85;" xml:space="preserve">
<style type="text/css">
	.st0{fill:#405496;}
</style>
<g>
	<g>
		<path class="st0" d="M42.2,3.5C20.6,3.5,3.1,21.1,3.1,42.7c0,21.6,17.6,39.2,39.2,39.2c21.6,0,39.2-17.6,39.2-39.2
			C81.4,21.1,63.8,3.5,42.2,3.5z M52,44.1h-6.4c0,10.2,0,22.7,0,22.7h-9.4c0,0,0-12.4,0-22.7h-4.5v-8h4.5v-5.2
			c0-3.7,1.8-9.5,9.5-9.5l7,0v7.8c0,0-4.3,0-5.1,0c-0.8,0-2,0.4-2,2.2v4.7h7.2L52,44.1z"/>
	</g>
</g>
</svg>
