<?xml version="1.0" encoding="utf-8"?>
<!-- Generator: Adobe Illustrator 20.1.0, SVG Export Plug-In . SVG Version: 6.00 Build 0)  -->
<svg version="1.1" id="Capa_1" xmlns="http://www.w3.org/2000/svg" xmlns:xlink="http://www.w3.org/1999/xlink" x="0px" y="0px"
	 viewBox="0 0 85 85" style="enable-background:new 0 0 85 85;" xml:space="preserve">
<style type="text/css">
	.st0{fill:#73962C;}
</style>
<path class="st0" d="M43.1,46.5c-0.8-0.7-1.5-1.3-2.2-2.1c-0.7-0.8-0.6-1.7,0-2.6c0.2-0.3,0.5-0.6,0.7-0.8c0.7-0.6,1.4-1.2,2.1-1.9
	c3.2-3.2,2.8-8.3-0.8-11c0,0,0-0.1-0.1-0.2c0.3,0,0.6,0,0.9,0c0.6,0,1.3,0.2,1.9-0.1c0.5-0.2,0.9-0.8,1.3-1.3
	c0.4-0.4,0.7-0.8,1.1-1.3c-3.8,0-7.6,0-11.4,0c-0.8,0.1-1.6,0.2-2.3,0.3c-4.3,0.8-7.2,3.7-7.5,7.7c-0.3,3.2,1.1,6.4,4.3,8
	c1.4,0.7,2.9,1,4.5,1c0.2,0,0.3,0,0.6,0.1c-0.8,1.9-0.6,3.5,0.9,5c-0.2,0-0.3,0.1-0.4,0.1c-0.1,0-0.3,0-0.4,0
	c-1.8,0-3.6,0.2-5.3,0.7c-1.9,0.5-3.7,1.3-5,2.9c-2.1,2.4-2.8,7.1,1.3,9.8C28,61.5,29,62,30,62.3c2.9,1,5.8,1.1,8.8,0.7
	c2.2-0.3,4.2-0.9,6-2.2c4.4-3.1,4.3-8.6,1.2-11.7C45.2,48.2,44.1,47.4,43.1,46.5z M35.6,40.5c-2.5-0.9-3.8-2.9-4.5-5.3
	c-0.5-1.8-0.5-3.6,0.3-5.4c1.2-2.5,3.9-3.3,6.2-1.8c1.8,1.2,2.9,2.9,3.4,5c0.3,0.9,0.3,1.9,0.5,2.8c-0.1,0.8-0.2,1.4-0.3,2.1
	C40.5,40.3,38.2,41.5,35.6,40.5z M41.2,60.2c-1.6,0.7-3.2,1-5,1c-2.3,0-4.4-0.6-6.1-2.2c-2.4-2.2-2.4-5.6,0.1-7.8
	c1.9-1.8,4.3-2.4,6.9-2.3c2.2,0.1,4.1,0.7,5.7,2.3C45.6,54,44.9,58.4,41.2,60.2z"/>
<path class="st0" d="M57.6,26c-0.9,0-1.7,0-2.5,0c0,0.2,0,0.4,0,0.6c0,1.3,0,2.7,0,4c0,0.4-0.1,0.5-0.5,0.5c-1.3,0-2.7,0-4,0
	c-0.2,0-0.4,0-0.6,0c0,0.8,0,1.6,0,2.5c1.7,0,3.4,0,5.1,0c0,0.2,0,0.4,0,0.6c0,1.3,0,2.7,0,4c0,0.1,0.1,0.4,0.2,0.4
	c0.8,0,1.5,0,2.3,0c0-1.7,0-3.4,0-5.1c1.7,0,3.4,0,5.1,0c0-0.8,0-1.6,0-2.5c-1.7,0-3.4,0-5.1,0C57.6,29.3,57.6,27.6,57.6,26z"/>
<path class="st0" d="M42.8,7.7C23.2,7.7,7.3,23.6,7.3,43.1s15.9,35.4,35.4,35.4s35.4-15.9,35.4-35.4S62.3,7.7,42.8,7.7z M42.8,75.3
	c-17.7,0-32.2-14.4-32.2-32.2c0-17.7,14.4-32.2,32.2-32.2C60.5,10.9,75,25.4,75,43.1C75,60.9,60.5,75.3,42.8,75.3z"/>
</svg>
