<?xml version="1.0" encoding="utf-8"?>
<!-- Generator: Adobe Illustrator 20.1.0, SVG Export Plug-In . SVG Version: 6.00 Build 0)  -->
<svg version="1.1" id="Capa_1" xmlns="http://www.w3.org/2000/svg" xmlns:xlink="http://www.w3.org/1999/xlink" x="0px" y="0px"
	 viewBox="0 0 85 85" style="enable-background:new 0 0 85 85;" xml:space="preserve">
<style type="text/css">
	.st0{fill:#D43832;}
</style>
<g>
	<g>
		<g>
			<path class="st0" d="M37.5,49.4c-0.3-0.2-0.5-0.4-0.8-0.5c-0.8-0.2-1.7-0.4-2.5-0.4H34c-4,0-7.6,2.4-7.6,5.2c0,3,3,5.4,6.9,5.4
				c5.1,0,7.7-1.8,7.7-5.2c0-0.3,0-0.7-0.1-1C40.6,51.5,39.4,50.7,37.5,49.4z"/>
			<path class="st0" d="M34.6,38.9C34.6,38.9,34.6,38.9,34.6,38.9c1,0,1.8-0.4,2.4-1.1c1-1.1,1.4-3,1.2-4.9c-0.5-3.5-3-6.4-5.6-6.5
				l-0.1,0c-0.9,0-1.8,0.4-2.4,1.1c-1,1.1-1.4,2.9-1.1,4.8C29.5,35.7,32,38.8,34.6,38.9L34.6,38.9L34.6,38.9z"/>
			<path class="st0" d="M42.8,3C20.9,3,3,20.9,3,42.8c0,22,17.9,39.8,39.8,39.8c22,0,39.8-17.9,39.8-39.8C82.7,20.9,64.8,3,42.8,3z
				 M38.2,62.2c-1.5,0.4-3.1,0.7-4.8,0.7c-1.9,0-3.7-0.2-5.4-0.6c-3.3-0.8-5.7-2.4-6.9-4.4c-0.5-0.9-0.7-1.8-0.7-2.8
				c0-1,0.2-2,0.7-3c1.8-3.9,6.6-6.4,11.9-6.4c0.1,0,0.1,0,0.2,0c-0.4-0.8-0.6-1.5-0.6-2.4c0-0.4,0.1-0.8,0.2-1.3
				c-5.5-0.1-9.7-4.2-9.7-9.5c0-3.8,3-7.5,7.3-8.9c1.3-0.4,2.6-0.7,3.9-0.7H46c0.4,0,0.8,0.3,0.9,0.6c0.1,0.4,0,0.8-0.3,1l-2.6,1.9
				c-0.2,0.1-0.3,0.2-0.5,0.2h-0.9c1.2,1.5,1.9,3.6,1.9,5.9c0,2.6-1.3,5-3.7,6.9c-1.8,1.4-1.9,1.8-1.9,2.7c0,0.5,1.3,1.9,2.7,2.9
				c3.3,2.3,4.5,4.6,4.5,8.5C46,57.4,42.9,60.9,38.2,62.2z M65,41.9c0,0.5-0.4,0.9-0.9,0.9h-6.7v6.7c0,0.5-0.4,0.9-0.9,0.9h-1.9
				c-0.5,0-0.9-0.4-0.9-0.9v-6.7h-6.7c-0.5,0-0.9-0.4-0.9-0.9V40c0-0.5,0.4-0.9,0.9-0.9h6.7v-6.7c0-0.5,0.4-0.9,0.9-0.9h1.9
				c0.5,0,0.9,0.4,0.9,0.9v6.7H64c0.5,0,0.9,0.4,0.9,0.9L65,41.9L65,41.9z"/>
		</g>
	</g>
</g>
</svg>
