<?xml version="1.0" encoding="utf-8"?>
<!-- Generator: Adobe Illustrator 20.1.0, SVG Export Plug-In . SVG Version: 6.00 Build 0)  -->
<svg version="1.1" id="Capa_1" xmlns="http://www.w3.org/2000/svg" xmlns:xlink="http://www.w3.org/1999/xlink" x="0px" y="0px"
	 viewBox="0 0 99.2 99.2" style="enable-background:new 0 0 99.2 99.2;" xml:space="preserve">
<style type="text/css">
	.st0{fill:#1A1414;}
</style>
<g id="_x37_7_Essential_Icons">
	<path id="Heart" class="st0" d="M47.8,85.7L14.9,53.1c-1.4-1.3-2.5-2.8-3.5-4.4C6,39.8,7.4,28.4,14.9,21c4.3-4.3,10.1-6.7,16.2-6.7
		c9.6,0,15.6,5.6,18.1,8.8c2.5-3.2,8.5-8.8,18.1-8.8c6.1,0,11.9,2.4,16.2,6.7c7.4,7.4,8.9,18.8,3.5,27.7c-1,1.6-2.1,3.1-3.5,4.4
		L50.6,85.7C49.8,86.5,48.6,86.5,47.8,85.7z M31.1,18.3c-5.1,0-9.8,2-13.4,5.5c-6.1,6.1-7.3,15.5-2.9,22.8c0.8,1.3,1.8,2.6,2.9,3.7
		l31.5,31.2l31.5-31.2c1.1-1.1,2.1-2.3,2.9-3.7c4.4-7.4,3.3-16.8-2.9-22.8c-3.6-3.5-8.4-5.5-13.4-5.5c-7.2,0-13.2,3.9-16.4,9.3
		c-0.8,1.3-2.7,1.3-3.5,0C44.3,22.2,38.3,18.3,31.1,18.3z"/>
</g>
</svg>
