<?xml version="1.0" encoding="utf-8"?>
<!-- Generator: Adobe Illustrator 20.1.0, SVG Export Plug-In . SVG Version: 6.00 Build 0)  -->
<svg version="1.1" id="Capa_1" xmlns="http://www.w3.org/2000/svg" xmlns:xlink="http://www.w3.org/1999/xlink" x="0px" y="0px"
	 viewBox="0 0 85 85" style="enable-background:new 0 0 85 85;" xml:space="preserve">
<style type="text/css">
	.st0{fill:#4D89C8;}
</style>
<g>
	<g>
		<path class="st0" d="M42.3,3.8C20.6,3.8,2.9,21.5,2.9,43.1c0,21.7,17.6,39.3,39.3,39.3c21.7,0,39.3-17.6,39.3-39.3
			C81.6,21.5,63.9,3.8,42.3,3.8z M59.8,34.1c0,0.4,0,0.8,0,1.2c0,12-9.1,25.7-25.8,25.7c-5.1,0-9.9-1.5-13.9-4.1
			c0.7,0.1,1.4,0.1,2.2,0.1c4.2,0,8.1-1.4,11.2-3.9c-4-0.1-7.3-2.7-8.5-6.3c0.6,0.1,1.1,0.2,1.7,0.2c0.8,0,1.6-0.1,2.4-0.3
			C25.1,46,22,42.3,22,37.9c0,0,0-0.1,0-0.1c1.2,0.7,2.6,1.1,4.1,1.1c-2.4-1.6-4-4.4-4-7.5c0-1.7,0.4-3.2,1.2-4.6
			c4.5,5.5,11.1,9.1,18.7,9.5c-0.2-0.7-0.2-1.4-0.2-2.1c0-5,4.1-9.1,9-9.1c2.6,0,5,1.1,6.6,2.9c2.1-0.4,4-1.2,5.8-2.2
			c-0.7,2.1-2.1,3.9-4,5c1.8-0.2,3.6-0.7,5.2-1.4C63.1,31.3,61.6,32.9,59.8,34.1z"/>
	</g>
</g>
</svg>
