<?xml version="1.0" encoding="utf-8"?>
<!-- Generator: Adobe Illustrator 20.1.0, SVG Export Plug-In . SVG Version: 6.00 Build 0)  -->
<svg version="1.1" id="Capa_1" xmlns="http://www.w3.org/2000/svg" xmlns:xlink="http://www.w3.org/1999/xlink" x="0px" y="0px"
	 viewBox="0 0 85 85" style="enable-background:new 0 0 85 85;" xml:space="preserve">
<style type="text/css">
	.st0{fill:#73962C;}
</style>
<path class="st0" d="M65.2,32.1l-1.5,0.1c0.6-0.9,1-1.8,1.4-3c0.1-0.4,0.1-0.8-0.2-1.2c-0.4-0.5-1.1-0.7-1.7-0.4
	c-1.2,0.7-2.5,1.2-3.8,1.6l-0.8,0.2l-0.9-0.8c-1.7-1.2-3.8-1.8-5.9-1.8c-5.6,0-10.2,4.5-10.2,10l0,0.5l-1-0.1
	c-5.8-0.9-11-3.8-14.7-8.3c-0.5-0.7-1.7-0.6-2.1,0.2c-0.9,1.5-1.4,3.2-1.4,5c0,1.7,0.4,3.3,1.3,4.8c0,0,0,0,0,0
	c-0.7,0-1.3,0.6-1.3,1.3v0.1c0,2.9,1.3,5.7,3.6,7.6l0,0c-0.4,0.3-0.6,0.9-0.4,1.4c0.9,2.8,3.1,5.1,6,6.2c-2.3,1.1-4.9,1.7-7.5,1.7
	c-0.7,0-1.3,0-2-0.1c-0.7-0.1-1.2,0.3-1.4,0.9c-0.2,0.6,0.1,1.2,0.6,1.5c4.3,2.7,9.2,4.1,14.3,4.1C52.1,63.7,62,50.5,62,37.8l0-0.4
	l0.6-0.4l0.4-0.2c1.1-0.6,2.3-1.2,3.3-2.6c0.3-0.4,0.3-0.9,0.1-1.4C66.2,32.4,65.7,32.1,65.2,32.1C65.2,32.1,65.2,32.1,65.2,32.1z
	 M59.9,35.6c-0.4,0.3-0.6,0.7-0.6,1.1c0,0.3,0,0.7,0,1C59.4,47.4,52,61,35.5,61c-2.8,0-5.6-0.5-8.2-1.4c3.1-0.5,6-1.8,8.5-3.7
	c0.4-0.3,0.6-0.9,0.4-1.5c-0.2-0.5-0.7-0.9-1.2-0.9c-2.4,0-4.6-1.2-6-3.1L29,50.4c0.7,0,1.4-0.1,2.1-0.3c0.6-0.2,1-0.7,1-1.3
	c0-0.6-0.4-1.1-1.1-1.2c-2.8-0.6-5-2.6-5.8-5.3c0.8,0.2,1.6,0.3,2.4,0.4c0.6,0,1.1-0.4,1.2-0.9c0.2-0.6,0-1.1-0.5-1.5
	c-2.1-1.4-3.3-3.6-3.3-6.1c0-0.7,0.1-1.3,0.3-1.9l0-0.1l0.4,0.5c4.6,4.5,10.8,7.2,17.4,7.5c0.4,0,0.8-0.2,1-0.5
	c0.2-0.3,0.3-0.7,0.2-1.1c-0.1-0.5-0.2-1.1-0.2-1.7c0-4,3.4-7.3,7.5-7.3c2.1,0,4.1,0.8,5.5,2.3c0.3,0.3,0.8,0.5,1.2,0.4
	c0.8-0.2,1.6-0.4,2.4-0.6c-0.4,0.4-0.8,0.7-1.2,1c-0.5,0.3-0.8,0.9-0.6,1.5c0.2,0.6,0.7,1,1.3,1h0l0.5,0
	C60.6,35.1,60.3,35.3,59.9,35.6z"/>
<path class="st0" d="M43,7.7C23.5,7.7,7.6,23.6,7.6,43.1S23.5,78.5,43,78.5s35.4-15.9,35.4-35.4S62.5,7.7,43,7.7z M43,75.3
	c-17.7,0-32.2-14.4-32.2-32.2c0-17.7,14.4-32.2,32.2-32.2c17.7,0,32.2,14.4,32.2,32.2C75.2,60.9,60.7,75.3,43,75.3z"/>
</svg>
