<svg xmlns='http://www.w3.org/2000/svg' class='svg-icon-lib'>

<symbol id="facebook-line" viewBox="0 0 85 85">

<path class="st0" d="M49.5,31.4c1.5,0,3.1,0.4,3.3,0.5l0,0c0.7,0.2,1.5-0.3,1.6-1l1.1-6.3c0.1-0.6-0.3-1.3-0.9-1.5
	c-0.5-0.1-3-0.8-8.6-0.8c-3.6,0-6.1,1.1-8.1,3.6c-1.8,2.2-1.8,5.5-1.8,7.2V36l-3.3,0c-0.6,0-1.3,0.4-1.3,1.3v6.2
	c0,0.7,0.6,1.3,1.3,1.3h3.3v20.2c0,0.7,0.6,1.3,1.3,1.3h8.6c0.7,0,1.3-0.6,1.3-1.3V44.7h5.5c0.7,0,1.2-0.5,1.3-1.2l0.5-6.2
	c0-0.4-0.1-0.7-0.3-1c-0.2-0.3-0.6-0.4-1-0.4h-6v-3.5C47.4,31.5,48.8,31.4,49.5,31.4z M44.8,32.4v4.8c0,0.7,0.6,1.3,1.3,1.3H52
	l-0.3,3.6h-5.6c-0.7,0-1.3,0.6-1.3,1.3v20.2h-6V43.4c0-0.7-0.6-1.3-1.3-1.3h-3.3v-3.6h3.3c0.7,0,1.3-0.6,1.3-1.3v-4.2
	c0-2.1,0.1-4.3,1.2-5.6c1-1.2,2.6-2.6,6.1-2.6c3.4,0,5.6,0.3,6.7,0.5l-0.7,3.8c-2.5-0.4-4.4-0.3-5.7,0.4
	C45.4,30.2,44.8,31.2,44.8,32.4z"/>
<path class="st0" d="M42.6,7.7C23.1,7.7,7.2,23.6,7.2,43.1s15.9,35.4,35.4,35.4S78,62.6,78,43.1S62.1,7.7,42.6,7.7z M42.6,75.3
	c-17.7,0-32.2-14.4-32.2-32.2c0-17.7,14.4-32.2,32.2-32.2c17.7,0,32.2,14.4,32.2,32.2C74.8,60.9,60.4,75.3,42.6,75.3z"/>
</symbol>


<symbol id="facebook" viewBox="0 0 85 85">

<g>
	<g>
		<path class="st0" d="M42.2,3.5C20.6,3.5,3.1,21.1,3.1,42.7c0,21.6,17.6,39.2,39.2,39.2c21.6,0,39.2-17.6,39.2-39.2
			C81.4,21.1,63.8,3.5,42.2,3.5z M52,44.1h-6.4c0,10.2,0,22.7,0,22.7h-9.4c0,0,0-12.4,0-22.7h-4.5v-8h4.5v-5.2
			c0-3.7,1.8-9.5,9.5-9.5l7,0v7.8c0,0-4.3,0-5.1,0c-0.8,0-2,0.4-2,2.2v4.7h7.2L52,44.1z"/>
	</g>
</g>
</symbol>


<symbol id="google-line" viewBox="0 0 85 85">

<path class="st0" d="M43.1,46.5c-0.8-0.7-1.5-1.3-2.2-2.1c-0.7-0.8-0.6-1.7,0-2.6c0.2-0.3,0.5-0.6,0.7-0.8c0.7-0.6,1.4-1.2,2.1-1.9
	c3.2-3.2,2.8-8.3-0.8-11c0,0,0-0.1-0.1-0.2c0.3,0,0.6,0,0.9,0c0.6,0,1.3,0.2,1.9-0.1c0.5-0.2,0.9-0.8,1.3-1.3
	c0.4-0.4,0.7-0.8,1.1-1.3c-3.8,0-7.6,0-11.4,0c-0.8,0.1-1.6,0.2-2.3,0.3c-4.3,0.8-7.2,3.7-7.5,7.7c-0.3,3.2,1.1,6.4,4.3,8
	c1.4,0.7,2.9,1,4.5,1c0.2,0,0.3,0,0.6,0.1c-0.8,1.9-0.6,3.5,0.9,5c-0.2,0-0.3,0.1-0.4,0.1c-0.1,0-0.3,0-0.4,0
	c-1.8,0-3.6,0.2-5.3,0.7c-1.9,0.5-3.7,1.3-5,2.9c-2.1,2.4-2.8,7.1,1.3,9.8C28,61.5,29,62,30,62.3c2.9,1,5.8,1.1,8.8,0.7
	c2.2-0.3,4.2-0.9,6-2.2c4.4-3.1,4.3-8.6,1.2-11.7C45.2,48.2,44.1,47.4,43.1,46.5z M35.6,40.5c-2.5-0.9-3.8-2.9-4.5-5.3
	c-0.5-1.8-0.5-3.6,0.3-5.4c1.2-2.5,3.9-3.3,6.2-1.8c1.8,1.2,2.9,2.9,3.4,5c0.3,0.9,0.3,1.9,0.5,2.8c-0.1,0.8-0.2,1.4-0.3,2.1
	C40.5,40.3,38.2,41.5,35.6,40.5z M41.2,60.2c-1.6,0.7-3.2,1-5,1c-2.3,0-4.4-0.6-6.1-2.2c-2.4-2.2-2.4-5.6,0.1-7.8
	c1.9-1.8,4.3-2.4,6.9-2.3c2.2,0.1,4.1,0.7,5.7,2.3C45.6,54,44.9,58.4,41.2,60.2z"/>
<path class="st0" d="M57.6,26c-0.9,0-1.7,0-2.5,0c0,0.2,0,0.4,0,0.6c0,1.3,0,2.7,0,4c0,0.4-0.1,0.5-0.5,0.5c-1.3,0-2.7,0-4,0
	c-0.2,0-0.4,0-0.6,0c0,0.8,0,1.6,0,2.5c1.7,0,3.4,0,5.1,0c0,0.2,0,0.4,0,0.6c0,1.3,0,2.7,0,4c0,0.1,0.1,0.4,0.2,0.4
	c0.8,0,1.5,0,2.3,0c0-1.7,0-3.4,0-5.1c1.7,0,3.4,0,5.1,0c0-0.8,0-1.6,0-2.5c-1.7,0-3.4,0-5.1,0C57.6,29.3,57.6,27.6,57.6,26z"/>
<path class="st0" d="M42.8,7.7C23.2,7.7,7.3,23.6,7.3,43.1s15.9,35.4,35.4,35.4s35.4-15.9,35.4-35.4S62.3,7.7,42.8,7.7z M42.8,75.3
	c-17.7,0-32.2-14.4-32.2-32.2c0-17.7,14.4-32.2,32.2-32.2C60.5,10.9,75,25.4,75,43.1C75,60.9,60.5,75.3,42.8,75.3z"/>
</symbol>


<symbol id="google" viewBox="0 0 85 85">

<g>
	<g>
		<g>
			<path class="st0" d="M37.5,49.4c-0.3-0.2-0.5-0.4-0.8-0.5c-0.8-0.2-1.7-0.4-2.5-0.4H34c-4,0-7.6,2.4-7.6,5.2c0,3,3,5.4,6.9,5.4
				c5.1,0,7.7-1.8,7.7-5.2c0-0.3,0-0.7-0.1-1C40.6,51.5,39.4,50.7,37.5,49.4z"/>
			<path class="st0" d="M34.6,38.9C34.6,38.9,34.6,38.9,34.6,38.9c1,0,1.8-0.4,2.4-1.1c1-1.1,1.4-3,1.2-4.9c-0.5-3.5-3-6.4-5.6-6.5
				l-0.1,0c-0.9,0-1.8,0.4-2.4,1.1c-1,1.1-1.4,2.9-1.1,4.8C29.5,35.7,32,38.8,34.6,38.9L34.6,38.9L34.6,38.9z"/>
			<path class="st0" d="M42.8,3C20.9,3,3,20.9,3,42.8c0,22,17.9,39.8,39.8,39.8c22,0,39.8-17.9,39.8-39.8C82.7,20.9,64.8,3,42.8,3z
				 M38.2,62.2c-1.5,0.4-3.1,0.7-4.8,0.7c-1.9,0-3.7-0.2-5.4-0.6c-3.3-0.8-5.7-2.4-6.9-4.4c-0.5-0.9-0.7-1.8-0.7-2.8
				c0-1,0.2-2,0.7-3c1.8-3.9,6.6-6.4,11.9-6.4c0.1,0,0.1,0,0.2,0c-0.4-0.8-0.6-1.5-0.6-2.4c0-0.4,0.1-0.8,0.2-1.3
				c-5.5-0.1-9.7-4.2-9.7-9.5c0-3.8,3-7.5,7.3-8.9c1.3-0.4,2.6-0.7,3.9-0.7H46c0.4,0,0.8,0.3,0.9,0.6c0.1,0.4,0,0.8-0.3,1l-2.6,1.9
				c-0.2,0.1-0.3,0.2-0.5,0.2h-0.9c1.2,1.5,1.9,3.6,1.9,5.9c0,2.6-1.3,5-3.7,6.9c-1.8,1.4-1.9,1.8-1.9,2.7c0,0.5,1.3,1.9,2.7,2.9
				c3.3,2.3,4.5,4.6,4.5,8.5C46,57.4,42.9,60.9,38.2,62.2z M65,41.9c0,0.5-0.4,0.9-0.9,0.9h-6.7v6.7c0,0.5-0.4,0.9-0.9,0.9h-1.9
				c-0.5,0-0.9-0.4-0.9-0.9v-6.7h-6.7c-0.5,0-0.9-0.4-0.9-0.9V40c0-0.5,0.4-0.9,0.9-0.9h6.7v-6.7c0-0.5,0.4-0.9,0.9-0.9h1.9
				c0.5,0,0.9,0.4,0.9,0.9v6.7H64c0.5,0,0.9,0.4,0.9,0.9L65,41.9L65,41.9z"/>
		</g>
	</g>
</g>
</symbol>


<symbol id="heart-line" viewBox="0 0 99.2 99.2">

<g id="_x37_7_Essential_Icons">
	<path id="Heart" class="st0" d="M47.8,85.7L14.9,53.1c-1.4-1.3-2.5-2.8-3.5-4.4C6,39.8,7.4,28.4,14.9,21c4.3-4.3,10.1-6.7,16.2-6.7
		c9.6,0,15.6,5.6,18.1,8.8c2.5-3.2,8.5-8.8,18.1-8.8c6.1,0,11.9,2.4,16.2,6.7c7.4,7.4,8.9,18.8,3.5,27.7c-1,1.6-2.1,3.1-3.5,4.4
		L50.6,85.7C49.8,86.5,48.6,86.5,47.8,85.7z M31.1,18.3c-5.1,0-9.8,2-13.4,5.5c-6.1,6.1-7.3,15.5-2.9,22.8c0.8,1.3,1.8,2.6,2.9,3.7
		l31.5,31.2l31.5-31.2c1.1-1.1,2.1-2.3,2.9-3.7c4.4-7.4,3.3-16.8-2.9-22.8c-3.6-3.5-8.4-5.5-13.4-5.5c-7.2,0-13.2,3.9-16.4,9.3
		c-0.8,1.3-2.7,1.3-3.5,0C44.3,22.2,38.3,18.3,31.1,18.3z"/>
</g>
</symbol>


<symbol id="heart" viewBox="0 0 99.2 99.2">

<g id="_x37_7_Essential_Icons_1_">
	<path id="Heart_1_" class="st0" d="M48.4,85.7L15.5,53.1c-1.4-1.3-2.5-2.8-3.5-4.4C6.6,39.8,8,28.4,15.5,21
		c4.3-4.3,10.1-6.7,16.2-6.7c9.6,0,15.6,5.6,18.1,8.8c2.5-3.2,8.5-8.8,18.1-8.8c6.1,0,11.9,2.4,16.2,6.7c7.4,7.4,8.9,18.8,3.5,27.7
		c-1,1.6-2.1,3.1-3.5,4.4L51.2,85.7C50.4,86.5,49.2,86.5,48.4,85.7z"/>
</g>
</symbol>


<symbol id="pinterest-line" viewBox="0 0 85 85">

<path class="st0" d="M42,7.7C22.5,7.7,6.6,23.6,6.6,43.1S22.5,78.5,42,78.5s35.4-15.9,35.4-35.4S61.6,7.7,42,7.7z M42,75.3
	c-17.7,0-32.2-14.4-32.2-32.2c0-17.7,14.4-32.2,32.2-32.2c17.7,0,32.2,14.4,32.2,32.2C74.2,60.9,59.8,75.3,42,75.3z"/>
<path class="st0" d="M60.1,31.9c-1.7-7.1-8-11.6-16.5-11.6c-0.6,0-1.3,0-1.9,0.1c-4.8,0.4-9.1,2.5-12.2,6c-2.9,3.3-4.2,7.6-3.9,11.9
	c0.4,5,3.2,8.3,7.6,8.8l0.8,0.1c-0.1,0.5-0.3,1-0.4,1.5c-0.4,1.5-0.8,3.1-1,4.7c-0.3,2.3-0.3,4.5-0.4,6.7c0,0.9-0.1,1.9-0.1,2.8
	l-0.1,1.4l2.9,0.2l0.5-0.5c3.4-3.6,4.8-8,5.9-12.5c1.9,1,3.9,1.6,5.9,1.6h0c3.3,0,6.3-1.5,8.8-4.3C60.2,44.1,61.6,38.2,60.1,31.9z
	 M34.9,43.7c0-0.9-0.1-1.9-0.5-2.7c-1.2-2.1-1.4-4.1-0.7-6.6c1.3-4.6,6-7,10.1-7c2.1,0,4,0.6,5.6,1.8c2.3,1.7,2.7,5.5,2.4,8.5
	c-0.5,3.8-2.2,7.1-4,7.9c-0.9,0.4-2.6,0.3-3.6-0.2c-0.2-0.1-0.9-0.4-0.3-2.6l0.3-0.9c0.6-2,1.2-4.1,1.6-6.2c0.5-2.7-0.6-4.9-2.9-5.7
	c-0.6-0.2-1.3-0.3-1.9-0.3c-2,0-3.7,1.1-4.5,2.9c-1.1,2.4-1.5,4.4-1.1,6C35.4,40.3,35.2,42,34.9,43.7z M53.8,47
	c-1.9,2.2-4.1,3.3-6.6,3.3c-1.9,0-4-0.7-6-2.1L39.5,47l-0.6,2.5c-0.9,3.8-1.8,7.4-3.8,10.4c0.1-2,0.1-4.1,0.4-6.2
	c0.2-1.4,0.5-2.8,0.9-4.3c0.2-0.9,0.5-1.7,0.7-2.6l0.2-1c0.6-2.5,1.2-5.1,0.6-8c-0.2-1,0.1-2.5,0.9-4.2c0.4-0.8,1-1.2,1.9-1.2
	c0.3,0,0.6,0.1,1,0.2c0.3,0.1,1.4,0.5,1,2.4c-0.4,2-1,4-1.5,6l-0.3,0.9c-1.1,3.8,0.4,5.4,1.9,6.1c1.8,0.8,4.3,0.9,5.9,0.2
	C52,46.8,54,42.1,54.5,38c0.6-4.9-0.7-9.1-3.5-11.2c-2.1-1.5-4.6-2.4-7.3-2.4c-6,0-11.4,3.9-12.8,9.2c-0.9,3.2-0.6,6.1,1,8.8
	c0.2,0.3,0.2,0.9,0.1,1.5c-2.6-1.1-3.3-4-3.4-5.8c-0.3-3.6,0.9-7.1,3.2-9.8c2.5-2.9,6.1-4.7,10.2-5c0.6,0,1.1-0.1,1.7-0.1
	c7.2,0,12.3,3.5,13.7,9.3C58.6,38,57.4,42.9,53.8,47z"/>
</symbol>


<symbol id="twitter-line" viewBox="0 0 85 85">

<path class="st0" d="M65.2,32.1l-1.5,0.1c0.6-0.9,1-1.8,1.4-3c0.1-0.4,0.1-0.8-0.2-1.2c-0.4-0.5-1.1-0.7-1.7-0.4
	c-1.2,0.7-2.5,1.2-3.8,1.6l-0.8,0.2l-0.9-0.8c-1.7-1.2-3.8-1.8-5.9-1.8c-5.6,0-10.2,4.5-10.2,10l0,0.5l-1-0.1
	c-5.8-0.9-11-3.8-14.7-8.3c-0.5-0.7-1.7-0.6-2.1,0.2c-0.9,1.5-1.4,3.2-1.4,5c0,1.7,0.4,3.3,1.3,4.8c0,0,0,0,0,0
	c-0.7,0-1.3,0.6-1.3,1.3v0.1c0,2.9,1.3,5.7,3.6,7.6l0,0c-0.4,0.3-0.6,0.9-0.4,1.4c0.9,2.8,3.1,5.1,6,6.2c-2.3,1.1-4.9,1.7-7.5,1.7
	c-0.7,0-1.3,0-2-0.1c-0.7-0.1-1.2,0.3-1.4,0.9c-0.2,0.6,0.1,1.2,0.6,1.5c4.3,2.7,9.2,4.1,14.3,4.1C52.1,63.7,62,50.5,62,37.8l0-0.4
	l0.6-0.4l0.4-0.2c1.1-0.6,2.3-1.2,3.3-2.6c0.3-0.4,0.3-0.9,0.1-1.4C66.2,32.4,65.7,32.1,65.2,32.1C65.2,32.1,65.2,32.1,65.2,32.1z
	 M59.9,35.6c-0.4,0.3-0.6,0.7-0.6,1.1c0,0.3,0,0.7,0,1C59.4,47.4,52,61,35.5,61c-2.8,0-5.6-0.5-8.2-1.4c3.1-0.5,6-1.8,8.5-3.7
	c0.4-0.3,0.6-0.9,0.4-1.5c-0.2-0.5-0.7-0.9-1.2-0.9c-2.4,0-4.6-1.2-6-3.1L29,50.4c0.7,0,1.4-0.1,2.1-0.3c0.6-0.2,1-0.7,1-1.3
	c0-0.6-0.4-1.1-1.1-1.2c-2.8-0.6-5-2.6-5.8-5.3c0.8,0.2,1.6,0.3,2.4,0.4c0.6,0,1.1-0.4,1.2-0.9c0.2-0.6,0-1.1-0.5-1.5
	c-2.1-1.4-3.3-3.6-3.3-6.1c0-0.7,0.1-1.3,0.3-1.9l0-0.1l0.4,0.5c4.6,4.5,10.8,7.2,17.4,7.5c0.4,0,0.8-0.2,1-0.5
	c0.2-0.3,0.3-0.7,0.2-1.1c-0.1-0.5-0.2-1.1-0.2-1.7c0-4,3.4-7.3,7.5-7.3c2.1,0,4.1,0.8,5.5,2.3c0.3,0.3,0.8,0.5,1.2,0.4
	c0.8-0.2,1.6-0.4,2.4-0.6c-0.4,0.4-0.8,0.7-1.2,1c-0.5,0.3-0.8,0.9-0.6,1.5c0.2,0.6,0.7,1,1.3,1h0l0.5,0
	C60.6,35.1,60.3,35.3,59.9,35.6z"/>
<path class="st0" d="M43,7.7C23.5,7.7,7.6,23.6,7.6,43.1S23.5,78.5,43,78.5s35.4-15.9,35.4-35.4S62.5,7.7,43,7.7z M43,75.3
	c-17.7,0-32.2-14.4-32.2-32.2c0-17.7,14.4-32.2,32.2-32.2c17.7,0,32.2,14.4,32.2,32.2C75.2,60.9,60.7,75.3,43,75.3z"/>
</symbol>


<symbol id="twitter" viewBox="0 0 85 85">

<g>
	<g>
		<path class="st0" d="M42.3,3.8C20.6,3.8,2.9,21.5,2.9,43.1c0,21.7,17.6,39.3,39.3,39.3c21.7,0,39.3-17.6,39.3-39.3
			C81.6,21.5,63.9,3.8,42.3,3.8z M59.8,34.1c0,0.4,0,0.8,0,1.2c0,12-9.1,25.7-25.8,25.7c-5.1,0-9.9-1.5-13.9-4.1
			c0.7,0.1,1.4,0.1,2.2,0.1c4.2,0,8.1-1.4,11.2-3.9c-4-0.1-7.3-2.7-8.5-6.3c0.6,0.1,1.1,0.2,1.7,0.2c0.8,0,1.6-0.1,2.4-0.3
			C25.1,46,22,42.3,22,37.9c0,0,0-0.1,0-0.1c1.2,0.7,2.6,1.1,4.1,1.1c-2.4-1.6-4-4.4-4-7.5c0-1.7,0.4-3.2,1.2-4.6
			c4.5,5.5,11.1,9.1,18.7,9.5c-0.2-0.7-0.2-1.4-0.2-2.1c0-5,4.1-9.1,9-9.1c2.6,0,5,1.1,6.6,2.9c2.1-0.4,4-1.2,5.8-2.2
			c-0.7,2.1-2.1,3.9-4,5c1.8-0.2,3.6-0.7,5.2-1.4C63.1,31.3,61.6,32.9,59.8,34.1z"/>
	</g>
</g>
</symbol>
</svg>