<svg xmlns="http://www.w3.org/2000/svg" class="svg-icon-lib">
    <symbol id="calendario" viewBox="0 0 60 60">
       <g> <path d="M7.8,22.8c0-0.4,0.3-0.7,0.7-0.7s0.7,0.3,0.7,0.7v25.4c0,0.8,0.3,1.5,0.9,2.1c0.5,0.5,1.3,0.9,2.1,0.9h36.3
		c0.8,0,1.5-0.3,2.1-0.9c0.5-0.5,0.9-1.3,0.9-2.1V22.8c0-0.4,0.3-0.7,0.7-0.7s0.7,0.3,0.7,0.7v25.4c0,1.2-0.5,2.3-1.3,3.1
		s-1.9,1.3-3.1,1.3H12.2c-1.2,0-2.3-0.5-3.1-1.3c-0.8-0.8-1.3-1.9-1.3-3.1V22.8z"/> <path d="M41.6,15.7c0,0.4-0.3,0.7-0.7,0.7s-0.7-0.3-0.7-0.7V8.1c0-0.4,0.3-0.7,0.7-0.7s0.7,0.3,0.7,0.7V15.7z"/> <path d="M20.5,15.7c0,0.4-0.3,0.7-0.7,0.7s-0.7-0.3-0.7-0.7V8.1c0-0.4,0.3-0.7,0.7-0.7s0.7,0.3,0.7,0.7V15.7z"/> <path d="M19.8,10.9c0.4,0,0.7,0.3,0.7,0.7s-0.3,0.7-0.7,0.7h-7.6c-0.8,0-1.5,0.3-2.1,0.9l0,0c-0.5,0.5-0.8,1.2-0.8,2v3.2h42.2v-3.2
		c0-0.8-0.3-1.5-0.9-2.1l0,0c-0.5-0.5-1.3-0.8-2-0.8h-4.8c-0.4,0-0.7-0.3-0.7-0.7s0.3-0.7,0.7-0.7h4.8c1.2,0,2.2,0.5,3,1.2l0,0
		c0.8,0.8,1.3,1.9,1.3,3.1v3.9c0,0.4-0.3,0.7-0.7,0.7H8.5c-0.4,0-0.7-0.3-0.7-0.7v-3.9c0-1.2,0.5-2.2,1.2-3l0,0
		c0.8-0.8,1.9-1.3,3.1-1.3C12.1,10.9,19.8,10.9,19.8,10.9z M40.9,10.9H22.6c-0.4,0-0.7,0.3-0.7,0.7s0.3,0.7,0.7,0.7h18.3
		c0.4,0,0.7-0.3,0.7-0.7C41.6,11.2,41.3,10.9,40.9,10.9L40.9,10.9z"/> <path d="M21.5,25.3h-6.8V33h6.8V25.3z M14,23.9h8.2c0.4,0,0.7,0.3,0.7,0.7v9.1c0,0.4-0.3,0.7-0.7,0.7H14c-0.4,0-0.7-0.3-0.7-0.7
		v-9.1C13.3,24.3,13.6,23.9,14,23.9L14,23.9z"/> <path d="M46,25.3h-6.8V33H46V25.3z M38.5,23.9h8.2c0.4,0,0.7,0.3,0.7,0.7v9.1c0,0.4-0.3,0.7-0.7,0.7h-8.2c-0.4,0-0.7-0.3-0.7-0.7
		v-9.1C37.8,24.3,38.1,23.9,38.5,23.9L38.5,23.9z"/> <path d="M33.7,25.3H27V33h6.8L33.7,25.3L33.7,25.3z M26.3,23.9h8.2c0.4,0,0.7,0.3,0.7,0.7v9.1c0,0.4-0.3,0.7-0.7,0.7h-8.2
		c-0.4,0-0.7-0.3-0.7-0.7v-9.1C25.5,24.3,25.9,23.9,26.3,23.9L26.3,23.9z"/> <path d="M21.5,38.1h-6.8v7.7h6.8V38.1z M14,36.7h8.2c0.4,0,0.7,0.3,0.7,0.7v9.1c0,0.4-0.3,0.7-0.7,0.7H14c-0.4,0-0.7-0.3-0.7-0.7
		v-9.1C13.3,37,13.6,36.7,14,36.7L14,36.7z"/> <path d="M46,38.1h-6.8v7.7H46V38.1z M38.5,36.7h8.2c0.4,0,0.7,0.3,0.7,0.7v9.1c0,0.4-0.3,0.7-0.7,0.7h-8.2c-0.4,0-0.7-0.3-0.7-0.7
		v-9.1C37.8,37,38.1,36.7,38.5,36.7L38.5,36.7z"/> <path d="M33.7,38.1H27v7.7h6.8L33.7,38.1L33.7,38.1z M26.3,36.7h8.2c0.4,0,0.7,0.3,0.7,0.7v9.1c0,0.4-0.3,0.7-0.7,0.7h-8.2
		c-0.4,0-0.7-0.3-0.7-0.7v-9.1C25.5,37,25.9,36.7,26.3,36.7L26.3,36.7z"/> </g> 
    </symbol>
    <symbol id="check" viewBox="0 0 50 50">
       <polygon points="44,16.9 37.1,10 21,26.2 12.9,18.1 6,25 21,40 "/> 
    </symbol>
    <symbol id="cuota" viewBox="0 0 60 60">
        <g> <path class="st0" d="M8.1,23.1c0-0.4,0.3-0.7,0.7-0.7s0.7,0.3,0.7,0.7v24.8c0,0.8,0.3,1.5,0.8,2s1.2,0.8,2,0.8h35.4
		c0.8,0,1.5-0.3,2-0.8s0.8-1.2,0.8-2V23.1c0-0.4,0.3-0.7,0.7-0.7s0.7,0.3,0.7,0.7v24.8c0,1.2-0.5,2.2-1.2,3c-0.8,0.8-1.8,1.2-3,1.2
		H12.3c-1.2,0-2.2-0.5-3-1.2c-0.8-0.8-1.2-1.8-1.2-3V23.1z"/> <path class="st0" d="M42.9,16.2c0,0.4-0.3,0.7-0.7,0.7s-0.7-0.3-0.7-0.7v-8c0-0.4,0.3-0.7,0.7-0.7s0.7,0.3,0.7,0.7V16.2z"/> <path class="st0" d="M20.6,16.2c0,0.4-0.3,0.7-0.7,0.7s-0.7-0.3-0.7-0.7v-8c0-0.4,0.3-0.7,0.7-0.7s0.7,0.3,0.7,0.7V16.2z"/> <path class="st0" d="M19.7,11.5c0.4,0,0.7,0.3,0.7,0.7s-0.3,0.7-0.7,0.7h-7.4c-0.8,0-1.5,0.3-2,0.8l0,0c-0.5,0.5-0.8,1.2-0.8,2v3.1
		h41.1v-3.1c0-0.8-0.3-1.5-0.8-2l0,0c-0.5-0.5-1.2-0.8-2-0.8H43c-0.4,0-0.7-0.3-0.7-0.7s0.3-0.7,0.7-0.7h4.7c1.1,0,2.2,0.5,2.9,1.2
		l0,0c0.8,0.8,1.2,1.8,1.2,3v3.8c0,0.4-0.3,0.7-0.7,0.7H8.8c-0.4,0-0.7-0.3-0.7-0.7v-3.8c0-1.1,0.5-2.2,1.2-2.9l0,0
		c0.8-0.8,1.8-1.2,3-1.2L19.7,11.5L19.7,11.5z M40.3,11.5H22.5c-0.4,0-0.7,0.3-0.7,0.7s0.3,0.7,0.7,0.7h17.8c0.4,0,0.7-0.3,0.7-0.7
		S40.7,11.5,40.3,11.5L40.3,11.5z"/> <g class="st1"> <path class="st2" d="M16.2,24.8c0-0.7,0.4-1,1.1-1h5.9c1.4,0,1.6,0.6,1.6,1.3v0.2c0,0.6-0.5,1.3-0.8,1.9l-3.8,7
			C19.9,34.8,19.4,35,19,35c-0.8,0-1.5-0.7-1.4-0.9l4.6-8.2h-4.9c-0.7,0-1.1-0.3-1.1-1V24.8z"/> </g> <g class="st1"> <path class="st2" d="M33.9,46.3v-6.9c-0.3,0.2-0.6,0.3-1,0.3c-0.9,0-1.5-0.6-1.5-1.4s0.6-1.2,0.7-1.2c0.3,0.2,0.6,0.4,1,0.4
			c0.7,0,1.3-0.5,1.5-1.3h0.7c0.7,0,1.1,0.4,1.1,1.2v9c0,0.8-0.4,1.2-1.1,1.2h-0.3C34.2,47.5,33.9,47.1,33.9,46.3z"/> <path class="st2" d="M40.6,45.3h5c0.9,0,1.2,0.3,1.2,0.9v0.1c0,0.6-0.3,1-1.2,1h-5.8c-1.1,0-1.5-0.3-1.5-1.3v-0.5
			c0-2.1,1.8-3.2,3.4-3.9c1.4-0.6,2.5-1.1,2.5-2.1c0-0.9-0.7-1.5-1.9-1.5c-1.4,0-2.1,0.9-2.4,1.9c0,0.1-1.6,0.1-1.6-1.2
			c0-1.4,1.5-2.8,4.2-2.8c2.7,0,4.2,1.3,4.2,3.4c0,2-1.5,2.8-3.1,3.5C42,43.6,40.9,44.2,40.6,45.3z"/> </g> <g> <path d="M23.6,44.8c-0.1,0-0.2,0-0.2-0.1c-0.2-0.1-0.3-0.4-0.2-0.7l9.4-18.9c0.1-0.2,0.4-0.3,0.7-0.2c0.2,0.1,0.3,0.4,0.2,0.7
			L24,44.5C24,44.7,23.8,44.8,23.6,44.8z"/> </g> </g> 
    </symbol>
    <symbol id="dinero" viewBox="0 0 60 60">
        <g> <g> <path d="M38.2,49.5c-3.8,0-7.5-1.5-10.2-4.1c-2.7-2.7-4.2-6.4-4.2-10.2S25.3,27.7,28,25c2.6-2.6,6.3-4.1,10.2-4.1
			s7.5,1.5,10.2,4.1c2.7,2.7,4.2,6.4,4.2,10.2c0,3.8-1.5,7.5-4.2,10.2C45.7,48,42,49.5,38.2,49.5z M38.2,21.9c-3.6,0-7,1.4-9.4,3.9
			c-2.5,2.5-4,6-4,9.4c0,3.5,1.4,6.9,4,9.4c2.4,2.4,5.9,3.9,9.4,3.9s7-1.4,9.4-3.9c2.5-2.5,4-6,4-9.4s-1.4-6.9-4-9.4
			C45.2,23.3,41.8,21.9,38.2,21.9z"/> </g> <g> <path d="M33.2,16H11.6c-1,0-1.9-0.8-1.9-1.8V12c0-1,0.8-1.8,1.9-1.8h21.6c1,0,1.9,0.8,1.9,1.8v2.2C35,15.2,34.2,16,33.2,16z
			 M11.6,11.6c-0.3,0-0.5,0.2-0.5,0.5v2.2c0,0.3,0.2,0.5,0.5,0.5h21.6c0.3,0,0.5-0.2,0.5-0.5v-2.2c0-0.3-0.2-0.5-0.5-0.5H11.6z"/> </g> <g> <path class="st0" d="M31.3,38.6c0-0.6,0.7-1,0.8-0.9c0.6,0.9,1.8,1.7,3.3,1.7s2.4-0.6,2.4-1.7c0-1.2-1.3-1.5-2.8-1.9
			c-1.7-0.4-3.5-1-3.5-3.2c0-1.9,1.6-3.2,4-3.2s3.8,1.1,3.8,1.9c0,0.6-0.8,1-0.8,1c-0.6-0.8-1.7-1.5-2.9-1.5c-1.4,0-2.3,0.7-2.3,1.7
			c0,1.2,1.1,1.4,2.6,1.7c1.9,0.4,3.7,1.1,3.7,3.3c0,2-1.6,3.3-4.1,3.3C32.7,40.8,31.3,39.5,31.3,38.6z"/> </g> <g> <path class="st0" d="M39,42.5c0-0.2,0.1-0.4,0.1-0.7l4-12.9c0,0,0.2-0.1,0.3-0.1c0.4,0,0.9,0.1,0.9,0.8c0,0.2-0.1,0.4-0.1,0.7
			l-4,12.9c0,0-0.2,0.1-0.3,0.1C39.6,43.3,39,43.2,39,42.5z"/> </g> <path d="M30.7,21.3H9.5c-0.3,0-0.5-0.2-0.5-0.5v-2.2c0-0.3,0.2-0.5,0.5-0.5h21.6c0.3,0,0.5,0.2,0.5,0.5v2.2v0.1
		c0.4-0.2,0.9-0.4,1.4-0.6v-1.7c0-1-0.8-1.8-1.9-1.8H9.5c-1,0-1.9,0.8-1.9,1.8v2.2c0,1,0.8,1.8,1.9,1.8h19.1
		C29.3,22.1,30,21.7,30.7,21.3z"/> <path d="M24,28H10.4c-0.3,0-0.5-0.2-0.5-0.5v-2.2c0-0.3,0.2-0.5,0.5-0.5h15.8c0.2-0.3,0.5-0.6,0.8-0.8c0.2-0.2,0.4-0.3,0.6-0.5
		H10.4c-1,0-1.9,0.8-1.9,1.8v2.2c0,1,0.8,1.8,1.9,1.8h13C23.6,28.9,23.8,28.5,24,28z"/> <path d="M22.2,35.3c0-0.2,0-0.4,0-0.6H10.4c-0.3,0-0.5-0.2-0.5-0.5V32c0-0.3,0.2-0.5,0.5-0.5h12.4c0.1-0.5,0.2-0.9,0.4-1.4H10.4
		c-1,0-1.9,0.8-1.9,1.8v2.2c0,1,0.8,1.8,1.9,1.8h11.9C22.3,35.8,22.2,35.5,22.2,35.3z"/> <path d="M23.5,41.4H10.4c-0.3,0-0.5-0.2-0.5-0.5v-2.2c0-0.3,0.2-0.5,0.5-0.5h12.2c-0.1-0.4-0.2-0.9-0.2-1.4h-12
		c-1,0-1.9,0.8-1.9,1.8V41c0,1,0.8,1.8,1.9,1.8h13.8C23.9,42.4,23.7,41.9,23.5,41.4z"/> <path d="M28.7,48.1H10.4c-0.3,0-0.5-0.2-0.5-0.5v-2.2c0-0.3,0.2-0.5,0.5-0.5h15.2c-0.3-0.4-0.6-0.9-0.9-1.4H10.4
		c-1,0-1.9,0.8-1.9,1.8v2.2c0,1,0.8,1.8,1.9,1.8H31C30.1,49,29.4,48.6,28.7,48.1z"/> </g> 
    </symbol>
    <symbol id="duda" viewBox="0 0 50 50">
       <g> <path d="M25,43c-9.9,0-18-8.1-18-18S15.1,7,25,7s18,8.1,18,18S34.9,43,25,43z M25,8.7C16,8.7,8.7,16,8.7,25S16,41.3,25,41.3
		S41.3,34,41.3,25S34,8.7,25,8.7z"/> </g> <g> <g> <path d="M22.3,27.7c0.1-5.4,5.7-4.6,5.7-7.4c0-1.5-1.1-2.4-3-2.4c-2.7,0-4,1.9-4.2,3.7c0,0.1-3.1,0.2-3.1-2.3
			c0-2.3,2.5-5.2,7.4-5.2c4.6,0,7.3,2.3,7.3,5.8c0,5.4-5.9,4.6-6.2,8.4c-0.2,0.6-0.8,0.9-1.9,0.9C23.1,29.3,22.3,28.8,22.3,27.7z
			 M21.8,33.7v-0.5c0-1.4,0.7-2.1,2.1-2.1h0.6c1.5,0,2.2,0.7,2.2,2.1v0.5c0,1.4-0.7,2.1-2.2,2.1H24C22.6,35.8,21.8,35.1,21.8,33.7z"/> </g> </g> 
    </symbol>
    <symbol id="home" viewBox="0 0 32 32">
       <title>home</title> <path d="M32 18.451l-16-12.42-16 12.42v-5.064l16-12.42 16 12.42zM28 18v12h-8v-8h-8v8h-8v-12l12-9z"/> 
    </symbol>
    <symbol id="icon_check_thankyou" viewBox="0 0 128 128">
        <title>icon_check_thanyou</title> <g> <path class="st0" d="M64,124C30.9,124,4,97.1,4,64S30.9,4,64,4s60,26.9,60,60S97.1,124,64,124z M64,7C32.6,7,7,32.6,7,64
		s25.6,57,57,57s57-25.6,57-57S95.4,7,64,7z"/> </g> <path class="st0" d="M33.6,61.5c-1.6,5.7,5.3,13.2,8.1,17.6c2.4,3.8,4.4,8,7.1,11.6c3.8,5.2,11,5.7,14.7,0
	C72.9,76.4,82.7,62.2,92.3,48c2.6-3.9,5.2-8.1,2.3-12.8c-4.4-7.2-12.3-3.3-15.9,2c-5.1,7.4-10,14.9-15,22.3s-10.1,15-14.9,22.6h14.7
	c-3.1-4-6.8-7.6-10.1-11.4c-3.6-4.1-8.8-12.9-14.9-13C36.2,57.7,34.2,59.3,33.6,61.5L33.6,61.5z"/> 
    </symbol>
    <symbol id="lista" viewBox="0 0 60 60">
       <g> <g> <g> <path d="M42,52.6H17.9c-2.8,0-5-2.2-5-4.9V15.1c0-2.7,2.2-4.9,5-4.9h7.5c0.3,0,0.5,0.2,0.5,0.5s-0.2,0.5-0.5,0.5h-7.5
				c-2.2,0-4,1.7-4,3.9v32.6c0,2.2,1.8,3.9,4,3.9H42c2.2,0,4-1.7,4-3.9V15.1c0-2.2-1.8-3.9-4-3.9h-7.7c-0.3,0-0.5-0.2-0.5-0.5
				s0.2-0.5,0.5-0.5H42c2.8,0,5,2.2,5,4.9v32.6C47,50.4,44.8,52.6,42,52.6z M42,48.1H18c-0.3,0-0.5-0.2-0.5-0.5V15.1
				c0-0.3,0.2-0.5,0.5-0.5h3.6c0.3,0,0.5,0.2,0.5,0.5s-0.2,0.5-0.5,0.5h-3.1v31.5h23V15.5h-3.1c-0.3,0-0.5-0.2-0.5-0.5
				s0.2-0.5,0.5-0.5H42c0.3,0,0.5,0.2,0.5,0.5v32.6C42.5,47.9,42.3,48.1,42,48.1z"/> </g> </g> <g> <path d="M30,14c0.4,0,0.7-0.3,0.7-0.7v-1.5c0-0.4-0.3-0.7-0.7-0.7c-0.4,0-0.7,0.3-0.7,0.7v1.5C29.3,13.6,29.6,14,30,14L30,14z"/> </g> <path d="M29.3,25.7h8.6c0.4,0,0.7-0.3,0.7-0.7c0-0.4-0.3-0.7-0.7-0.7h-8.6c-0.4,0-0.7,0.3-0.7,0.7C28.6,25.4,28.9,25.7,29.3,25.7
		L29.3,25.7z"/> <path d="M21.6,24.6c-0.3,0.3-0.3,0.7,0,0.9l1.4,1.4c0.1,0.1,0.3,0.2,0.5,0.2s0.3-0.1,0.5-0.2l2.9-2.8c0.3-0.3,0.3-0.7,0-0.9
		c-0.3-0.3-0.7-0.3-1,0l-2.4,2.4l-1-0.9C22.3,24.3,21.9,24.3,21.6,24.6L21.6,24.6z"/> <path d="M29.3,32.8h8.6c0.4,0,0.7-0.3,0.7-0.7c0-0.4-0.3-0.7-0.7-0.7h-8.6c-0.4,0-0.7,0.3-0.7,0.7S28.9,32.8,29.3,32.8L29.3,32.8z"/> <path d="M25.9,30.3l-2.4,2.4l-1-0.9c-0.3-0.3-0.7-0.3-1,0c-0.3,0.3-0.3,0.7,0,0.9l1.4,1.4c0.1,0.1,0.3,0.2,0.5,0.2s0.3-0.1,0.5-0.2
		l2.9-2.8c0.3-0.3,0.3-0.7,0-0.9C26.6,30,26.2,30,25.9,30.3L25.9,30.3z"/> <path d="M29.3,39.9h8.6c0.4,0,0.7-0.3,0.7-0.7s-0.3-0.7-0.7-0.7h-8.6c-0.4,0-0.7,0.3-0.7,0.7C28.6,39.6,28.9,39.9,29.3,39.9
		L29.3,39.9z"/> <path d="M25.9,37.4l-2.4,2.4l-1-0.9c-0.3-0.3-0.7-0.3-1,0s-0.3,0.7,0,0.9l1.4,1.4c0.1,0.1,0.3,0.2,0.5,0.2s0.3-0.1,0.5-0.2l2.9-2.8
		c0.3-0.3,0.3-0.7,0-0.9C26.6,37.1,26.2,37.1,25.9,37.4L25.9,37.4z"/> <g> <path d="M36,16.3H24c-0.8,0-1.3-1-1.3-1.9c0-1,0.6-1.8,1.3-1.8h2.9c0.1-0.1,0.3-0.6,0.3-1v-1c0-1.9,1-3,2.8-3c1.9,0,2.8,1,2.8,3v1
			c0,0.4,0.2,0.9,0.3,1H36c0.7,0,1.3,0.8,1.3,1.8C37.3,15.3,36.8,16.3,36,16.3z M24,13.6c-0.1,0-0.3,0.3-0.3,0.8
			c0,0.5,0.2,0.9,0.3,0.9l12,0c0.1,0,0.3-0.4,0.3-0.9c0-0.5-0.2-0.8-0.3-0.8l-3,0c-0.8,0-1.2-1.3-1.2-2v-1c0-1.7-0.7-2-1.8-2
			c-1.2,0-1.8,0.6-1.8,2v1c0,0.7-0.4,2-1.2,2H24z"/> </g> </g> 
    </symbol>
    <symbol id="reloj" viewBox="0 0 60 60">
       <g> <g> <path d="M32.6,14.8c-0.9-0.1-1.8-0.2-2.7-0.2c-0.9,0-1.8,0.1-2.7,0.2L26.1,15c-2.7,0.6-5.3,1.8-7.4,3.4L17.3,17
			c-0.5-0.5-1.3-0.5-1.7,0l-1.7,1.7c-0.2,0.2-0.4,0.5-0.4,0.9c0,0.3,0.1,0.6,0.4,0.9l1.4,1.4c-2.5,3.2-3.9,7.1-3.9,11.5
			C11.3,43.6,19.7,52,30,52s18.7-8.4,18.7-18.7c0-9-6.4-16.5-14.8-18.3l0,0L32.6,14.8z M14.7,19.7L14.7,19.7
			C14.7,19.6,14.7,19.6,14.7,19.7l1.7-1.7c0,0,0,0,0.1,0l1.3,1.3c-0.6,0.5-1.2,1.1-1.8,1.7L14.7,19.7z M30,50.8
			c-9.6,0-17.5-7.8-17.5-17.5S20.3,15.8,30,15.8s17.5,7.8,17.5,17.5S39.6,50.8,30,50.8L30,50.8z"/> </g> <path d="M30,18.8c-8,0-14.6,6.5-14.6,14.6c0,8,6.5,14.6,14.6,14.6c8,0,14.6-6.5,14.6-14.6S38,18.8,30,18.8L30,18.8z M30,46.7
		c-7.4,0-13.4-6-13.4-13.4C16.6,26,22.6,20,30,20s13.4,6,13.4,13.4C43.4,40.7,37.4,46.7,30,46.7L30,46.7z"/> <path d="M30.6,25.6c-0.1-0.3-0.3-0.5-0.6-0.5c-0.3,0-0.5,0.2-0.6,0.5c0,0-1.6,7.5-1.6,7.8c0,1.2,1,2.2,2.2,2.2s2.2-1,2.2-2.2
		C32.2,33.1,30.6,25.6,30.6,25.6L30.6,25.6z M30,28.7l0.5,2.6c-0.2,0-0.3-0.1-0.5-0.1s-0.4,0-0.5,0.1L30,28.7z M30,34.3
		c-0.5,0-1-0.4-1-1c0-0.5,0.4-1,1-1c0.5,0,1,0.4,1,1C31,33.9,30.5,34.3,30,34.3L30,34.3z"/> <path d="M30,42.6c-0.3,0-0.6,0.3-0.6,0.6v2.3c0,0.3,0.3,0.6,0.6,0.6c0.3,0,0.6-0.3,0.6-0.6v-2.3C30.6,42.9,30.3,42.6,30,42.6
		L30,42.6z"/> <path d="M30,24.1c0.3,0,0.6-0.3,0.6-0.6v-2.3c0-0.3-0.3-0.6-0.6-0.6c-0.3,0-0.6,0.3-0.6,0.6v2.3C29.4,23.8,29.7,24.1,30,24.1
		L30,24.1z"/> <path d="M22.6,39.9L21,41.5c-0.2,0.2-0.2,0.6,0,0.8c0.1,0.1,0.3,0.2,0.4,0.2c0.2,0,0.3-0.1,0.4-0.2l1.6-1.6c0.2-0.2,0.2-0.6,0-0.8
		C23.2,39.7,22.8,39.7,22.6,39.9L22.6,39.9z"/> <path d="M37,26.9c0.2,0,0.3-0.1,0.4-0.2l1.6-1.6c0.2-0.2,0.2-0.6,0-0.8c-0.2-0.2-0.6-0.2-0.8,0l-1.6,1.6c-0.1,0.1-0.2,0.3-0.2,0.4
		C36.4,26.7,36.6,26.9,37,26.9L37,26.9z"/> <path d="M20.1,32.7h-2.3c-0.3,0-0.6,0.3-0.6,0.6s0.3,0.6,0.6,0.6h2.3c0.3,0,0.6-0.3,0.6-0.6S20.4,32.7,20.1,32.7L20.1,32.7z"/> <path d="M42.2,32.7h-2.3c-0.3,0-0.6,0.3-0.6,0.6s0.3,0.6,0.6,0.6h2.3c0.3,0,0.6-0.3,0.6-0.6S42.5,32.7,42.2,32.7L42.2,32.7z"/> <path d="M22.6,26.8c0.1,0.1,0.3,0.2,0.4,0.2l0,0c0.3,0,0.6-0.3,0.6-0.6c0-0.2-0.1-0.3-0.2-0.4l-1.6-1.6c-0.2-0.2-0.6-0.2-0.8,0
		c-0.2,0.2-0.2,0.6,0,0.8L22.6,26.8z"/> <path d="M37.4,39.9c-0.2-0.2-0.6-0.2-0.8,0s-0.2,0.6,0,0.8l1.6,1.6c0.1,0.1,0.3,0.2,0.4,0.2c0.2,0,0.3-0.1,0.4-0.2
		c0.2-0.2,0.2-0.6,0-0.8L37.4,39.9z"/> <path d="M32,7h-4.1c-1.5,0-2.8,1.3-2.8,2.8v1.3c0,0.3,0.3,0.6,0.6,0.6h0.4v2.6l1.2-0.3h5.3l1.2,0.2v-2.6h0.4c0.3,0,0.6-0.3,0.6-0.6
		V9.8C34.8,8.3,33.6,7,32,7z M33.6,10.6h-7.3V9.8c0-0.9,0.7-1.6,1.6-1.6H32c0.9,0,1.6,0.7,1.6,1.6V10.6z"/> </g> 
    </symbol></svg>