<svg xmlns='http://www.w3.org/2000/svg' class='svg-icon-lib'>

<symbol id="heart" viewBox="0 0 99.2 99.2">

<g id="_x37_7_Essential_Icons_1_">
	<path id="Heart_1_" class="st0" d="M48.4,85.7L15.5,53.1c-1.4-1.3-2.5-2.8-3.5-4.4C6.6,39.8,8,28.4,15.5,21
		c4.3-4.3,10.1-6.7,16.2-6.7c9.6,0,15.6,5.6,18.1,8.8c2.5-3.2,8.5-8.8,18.1-8.8c6.1,0,11.9,2.4,16.2,6.7c7.4,7.4,8.9,18.8,3.5,27.7
		c-1,1.6-2.1,3.1-3.5,4.4L51.2,85.7C50.4,86.5,49.2,86.5,48.4,85.7z"/>
</g>
</symbol>


<symbol id="facebook-line" viewBox="0 0 85 85">

<path class="st0" d="M49.5,31.4c1.5,0,3.1,0.4,3.3,0.5l0,0c0.7,0.2,1.5-0.3,1.6-1l1.1-6.3c0.1-0.6-0.3-1.3-0.9-1.5
	c-0.5-0.1-3-0.8-8.6-0.8c-3.6,0-6.1,1.1-8.1,3.6c-1.8,2.2-1.8,5.5-1.8,7.2V36l-3.3,0c-0.6,0-1.3,0.4-1.3,1.3v6.2
	c0,0.7,0.6,1.3,1.3,1.3h3.3v20.2c0,0.7,0.6,1.3,1.3,1.3h8.6c0.7,0,1.3-0.6,1.3-1.3V44.7h5.5c0.7,0,1.2-0.5,1.3-1.2l0.5-6.2
	c0-0.4-0.1-0.7-0.3-1c-0.2-0.3-0.6-0.4-1-0.4h-6v-3.5C47.4,31.5,48.8,31.4,49.5,31.4z M44.8,32.4v4.8c0,0.7,0.6,1.3,1.3,1.3H52
	l-0.3,3.6h-5.6c-0.7,0-1.3,0.6-1.3,1.3v20.2h-6V43.4c0-0.7-0.6-1.3-1.3-1.3h-3.3v-3.6h3.3c0.7,0,1.3-0.6,1.3-1.3v-4.2
	c0-2.1,0.1-4.3,1.2-5.6c1-1.2,2.6-2.6,6.1-2.6c3.4,0,5.6,0.3,6.7,0.5l-0.7,3.8c-2.5-0.4-4.4-0.3-5.7,0.4
	C45.4,30.2,44.8,31.2,44.8,32.4z"/>
<path class="st0" d="M42.6,7.7C23.1,7.7,7.2,23.6,7.2,43.1s15.9,35.4,35.4,35.4S78,62.6,78,43.1S62.1,7.7,42.6,7.7z M42.6,75.3
	c-17.7,0-32.2-14.4-32.2-32.2c0-17.7,14.4-32.2,32.2-32.2c17.7,0,32.2,14.4,32.2,32.2C74.8,60.9,60.4,75.3,42.6,75.3z"/>
</symbol>


<symbol id="twitter" viewBox="0 0 85 85">

<g>
	<g>
		<path class="st0" d="M42.3,3.8C20.6,3.8,2.9,21.5,2.9,43.1c0,21.7,17.6,39.3,39.3,39.3c21.7,0,39.3-17.6,39.3-39.3
			C81.6,21.5,63.9,3.8,42.3,3.8z M59.8,34.1c0,0.4,0,0.8,0,1.2c0,12-9.1,25.7-25.8,25.7c-5.1,0-9.9-1.5-13.9-4.1
			c0.7,0.1,1.4,0.1,2.2,0.1c4.2,0,8.1-1.4,11.2-3.9c-4-0.1-7.3-2.7-8.5-6.3c0.6,0.1,1.1,0.2,1.7,0.2c0.8,0,1.6-0.1,2.4-0.3
			C25.1,46,22,42.3,22,37.9c0,0,0-0.1,0-0.1c1.2,0.7,2.6,1.1,4.1,1.1c-2.4-1.6-4-4.4-4-7.5c0-1.7,0.4-3.2,1.2-4.6
			c4.5,5.5,11.1,9.1,18.7,9.5c-0.2-0.7-0.2-1.4-0.2-2.1c0-5,4.1-9.1,9-9.1c2.6,0,5,1.1,6.6,2.9c2.1-0.4,4-1.2,5.8-2.2
			c-0.7,2.1-2.1,3.9-4,5c1.8-0.2,3.6-0.7,5.2-1.4C63.1,31.3,61.6,32.9,59.8,34.1z"/>
	</g>
</g>
</symbol>
</svg>