<svg xmlns='http://www.w3.org/2000/svg' class='svg-icon-lib'>

<symbol id="pinterest-line" viewBox="0 0 85 85">

<path class="st0" d="M42,7.7C22.5,7.7,6.6,23.6,6.6,43.1S22.5,78.5,42,78.5s35.4-15.9,35.4-35.4S61.6,7.7,42,7.7z M42,75.3
	c-17.7,0-32.2-14.4-32.2-32.2c0-17.7,14.4-32.2,32.2-32.2c17.7,0,32.2,14.4,32.2,32.2C74.2,60.9,59.8,75.3,42,75.3z"/>
<path class="st0" d="M60.1,31.9c-1.7-7.1-8-11.6-16.5-11.6c-0.6,0-1.3,0-1.9,0.1c-4.8,0.4-9.1,2.5-12.2,6c-2.9,3.3-4.2,7.6-3.9,11.9
	c0.4,5,3.2,8.3,7.6,8.8l0.8,0.1c-0.1,0.5-0.3,1-0.4,1.5c-0.4,1.5-0.8,3.1-1,4.7c-0.3,2.3-0.3,4.5-0.4,6.7c0,0.9-0.1,1.9-0.1,2.8
	l-0.1,1.4l2.9,0.2l0.5-0.5c3.4-3.6,4.8-8,5.9-12.5c1.9,1,3.9,1.6,5.9,1.6h0c3.3,0,6.3-1.5,8.8-4.3C60.2,44.1,61.6,38.2,60.1,31.9z
	 M34.9,43.7c0-0.9-0.1-1.9-0.5-2.7c-1.2-2.1-1.4-4.1-0.7-6.6c1.3-4.6,6-7,10.1-7c2.1,0,4,0.6,5.6,1.8c2.3,1.7,2.7,5.5,2.4,8.5
	c-0.5,3.8-2.2,7.1-4,7.9c-0.9,0.4-2.6,0.3-3.6-0.2c-0.2-0.1-0.9-0.4-0.3-2.6l0.3-0.9c0.6-2,1.2-4.1,1.6-6.2c0.5-2.7-0.6-4.9-2.9-5.7
	c-0.6-0.2-1.3-0.3-1.9-0.3c-2,0-3.7,1.1-4.5,2.9c-1.1,2.4-1.5,4.4-1.1,6C35.4,40.3,35.2,42,34.9,43.7z M53.8,47
	c-1.9,2.2-4.1,3.3-6.6,3.3c-1.9,0-4-0.7-6-2.1L39.5,47l-0.6,2.5c-0.9,3.8-1.8,7.4-3.8,10.4c0.1-2,0.1-4.1,0.4-6.2
	c0.2-1.4,0.5-2.8,0.9-4.3c0.2-0.9,0.5-1.7,0.7-2.6l0.2-1c0.6-2.5,1.2-5.1,0.6-8c-0.2-1,0.1-2.5,0.9-4.2c0.4-0.8,1-1.2,1.9-1.2
	c0.3,0,0.6,0.1,1,0.2c0.3,0.1,1.4,0.5,1,2.4c-0.4,2-1,4-1.5,6l-0.3,0.9c-1.1,3.8,0.4,5.4,1.9,6.1c1.8,0.8,4.3,0.9,5.9,0.2
	C52,46.8,54,42.1,54.5,38c0.6-4.9-0.7-9.1-3.5-11.2c-2.1-1.5-4.6-2.4-7.3-2.4c-6,0-11.4,3.9-12.8,9.2c-0.9,3.2-0.6,6.1,1,8.8
	c0.2,0.3,0.2,0.9,0.1,1.5c-2.6-1.1-3.3-4-3.4-5.8c-0.3-3.6,0.9-7.1,3.2-9.8c2.5-2.9,6.1-4.7,10.2-5c0.6,0,1.1-0.1,1.7-0.1
	c7.2,0,12.3,3.5,13.7,9.3C58.6,38,57.4,42.9,53.8,47z"/>
</symbol>
</svg>